<svg width="267" height="42" viewBox="0 0 267 42" fill="none" xmlns="http://www.w3.org/2000/svg">
<path d="M1.93458 14.3871C3.07526 15.0925 4.26562 15.759 5.50063 16.3863" stroke="#079D49" stroke-width="4"/>
<path d="M14.4675 20.3493C67.1668 44.0309 217.067 45.7556 255.408 13.3516" stroke="#079D49" stroke-width="4" stroke-dasharray="8.27 3.1"/>
<path d="M8.98706 20.2129C9.63667 19.1453 10.2412 18.0468 10.7947 16.9172" stroke="#079D49" stroke-width="4"/>
<path d="M263.955 12.4424L263.955 12.4425C263.455 12.8951 262.996 13.37 262.573 13.8634L262.497 13.1385C262.445 12.6363 262.392 12.1342 262.339 11.6321L262.339 11.6288C262.286 11.1257 262.234 10.6226 262.181 10.1196L262.124 9.57276C262.67 9.79279 263.216 10.0128 263.76 10.2348L263.955 12.4424ZM263.955 12.4424C264.243 12.1811 264.406 11.7098 264.36 11.2182M263.955 12.4424L264.36 11.2182M261.786 9.43617L261.343 9.83757C260.698 10.4216 260.112 11.0376 259.576 11.68C254.619 9.63962 249.906 7.52844 245.742 4.1289L245.742 4.12885C245.395 3.84513 245.289 3.52786 245.308 3.23061C245.327 2.91591 245.49 2.57594 245.764 2.29059C246.323 1.7107 247.16 1.50533 247.814 2.039L261.786 9.43617ZM261.786 9.43617C256.894 7.46338 252.003 5.45878 247.814 2.03904L261.786 9.43617ZM264.36 11.2182C264.314 10.7254 264.077 10.364 263.76 10.2348L264.36 11.2182ZM261.013 13.3553C260.63 13.1994 260.247 13.0437 259.865 12.8876C258.624 14.51 257.668 16.3062 256.854 18.2008C256.054 20.0606 255.402 21.9786 254.745 23.9144C254.382 24.9828 254.017 26.0566 253.625 27.129C253.452 27.6015 253.515 27.9426 253.662 28.1781C253.817 28.4254 254.097 28.6104 254.447 28.6871C255.148 28.8402 255.982 28.541 256.312 27.6422C256.67 26.6639 257.009 25.6498 257.351 24.6263C257.912 22.9473 258.482 21.2427 259.159 19.6282C260.003 17.616 261.038 15.6767 262.492 13.9582L261.78 13.6679C261.524 13.5635 261.268 13.4594 261.013 13.3553Z" fill="#079D49" stroke="#079D49"/>
</svg>
