<svg width="268" height="59" viewBox="0 0 268 59" fill="none" xmlns="http://www.w3.org/2000/svg">
<g opacity="0.8">
<path d="M2.75963 46.1734C3.83989 45.3038 4.97285 44.4738 6.15351 43.684" stroke="#079D49" stroke-width="4"/>
<path d="M14.7738 38.6069C65.4041 8.33407 214.744 -4.8326 255.605 28.301" stroke="#079D49" stroke-width="4" stroke-dasharray="8.27 3.1"/>
<path d="M9.31958 39.1698C10.054 40.3074 10.7459 41.4829 11.3895 42.6967" stroke="#079D49" stroke-width="4"/>
<path d="M259.873 29.801C255.101 32.4374 250.582 35.1339 246.712 39.2174L246.712 39.2175C246.392 39.5551 246.301 39.9272 246.347 40.2883C246.396 40.6646 246.599 41.05 246.906 41.3561C247.213 41.6625 247.59 41.8564 247.948 41.8953C248.287 41.9321 248.637 41.8346 248.953 41.5014L259.873 29.801ZM259.873 29.801C260.46 30.4759 261.095 31.1175 261.786 31.719L262.34 32.2013C257.606 34.7692 252.869 37.3699 248.953 41.5013L259.873 29.801ZM262.665 27.1293C261.053 25.3205 259.85 23.2264 258.835 21.0319C258.03 19.2907 257.326 17.4466 256.632 15.6261C256.207 14.5135 255.786 13.4096 255.347 12.3435M262.665 27.1293L255.81 12.1531M262.665 27.1293L261.944 27.5247C261.697 27.66 261.45 27.795 261.203 27.9299C260.839 28.1291 260.475 28.3282 260.112 28.5275M262.665 27.1293L260.435 28.9205M255.347 12.3435L255.81 12.1531M255.347 12.3435C255.347 12.3435 255.347 12.3435 255.347 12.3435L255.81 12.1531M255.347 12.3435C254.92 11.3062 254.035 11.07 253.387 11.2804C253.057 11.3876 252.795 11.6072 252.659 11.8986C252.526 12.1833 252.487 12.5927 252.709 13.1322C253.186 14.2899 253.636 15.4538 254.084 16.613C254.898 18.7177 255.705 20.8071 256.655 22.817C257.627 24.8717 258.732 26.8077 260.112 28.5275M255.81 12.1531C254.753 9.58664 251.182 10.7343 252.247 13.3225C252.714 14.4585 253.161 15.6123 253.607 16.7674C255.255 21.0278 256.909 25.3059 259.667 28.772C259.815 28.6904 259.964 28.609 260.112 28.5275M260.112 28.5275C260.218 28.6598 260.326 28.7908 260.435 28.9205M260.435 28.9205C260.777 28.733 261.12 28.5456 261.463 28.3579C261.534 28.3186 261.606 28.2794 261.678 28.2401L260.435 28.9205ZM264.196 31.1914C263.665 31.4825 263.132 31.7715 262.599 32.0605L262.614 31.352C262.625 30.7891 262.637 30.2261 262.649 29.6629C262.66 29.0998 262.672 28.5366 262.684 27.9734L262.7 27.1683C263.158 27.6793 263.65 28.1673 264.179 28.6281L264.179 28.6281C264.511 28.9168 264.719 29.461 264.713 30.0318C264.707 30.6126 264.487 31.0318 264.196 31.1914Z" fill="#079D49" stroke="#079D49"/>
</g>
</svg>
