<?xml version="1.0" encoding="UTF-8" standalone="no"?>
<svg xmlns:dc="http://purl.org/dc/elements/1.1/" xmlns:cc="http://creativecommons.org/ns#" xmlns:rdf="http://www.w3.org/1999/02/22-rdf-syntax-ns#" xmlns:svg="http://www.w3.org/2000/svg" xmlns="http://www.w3.org/2000/svg" width="122" height="26" xml:space="preserve" viewBox="0 0 561.79999 129.2" y="0px" x="0px" id="Layer_2" version="1.1"><metadata id="metadata846"><rdf:RDF><cc:Work rdf:about=""><dc:format>image/svg+xml</dc:format><dc:type rdf:resource="http://purl.org/dc/dcmitype/StillImage"/><dc:title/></cc:Work></rdf:RDF></metadata><defs id="defs844"/>
<style id="style815" type="text/css">
	.st0{fill:url(#path16_1_);}
	.st1{fill:url(#path23_1_);}
	.st2{fill:url(#path30_1_);}
	.st3{fill:url(#path37_1_);}
	.st4{fill:#808285;}
</style>

<linearGradient gradientTransform="matrix(1,0,0,-1,-124.695,-74.6006)" y2="-120.4791" x2="210.53999" y1="-152.5065" x1="226.8587" gradientUnits="userSpaceOnUse" id="path16_1_">
	<stop id="stop818" style="stop-color:#FCD08F" offset="0"/>
	<stop id="stop820" style="stop-color:#F79673" offset="1"/>
</linearGradient>
<path style="fill:#ffd900;fill-opacity:1;stroke-width:0.9354412" d="m 95.358078,82.619089 c 14.312252,-7.857706 25.256912,-13.84453 26.192352,-14.31225 2.99341,-1.59025 6.08037,-5.799736 0,-9.07378 C 119.586,58.204074 109.01552,52.404338 95.358078,44.920809 L 76.55571,63.816721 Z" class="st0" id="path16"/>
<linearGradient gradientTransform="matrix(1,0,0,-1,-124.695,-74.6006)" y2="-214.3699" x2="140.9948" y1="-147.7386" x1="203.12959" gradientUnits="userSpaceOnUse" id="path23_1_">
	<stop id="stop824" style="stop-color:#E74047" offset="0"/>
	<stop id="stop826" style="stop-color:#7F50A0" offset="1"/>
</linearGradient>
<path style="fill:#f43249;fill-opacity:1;stroke-width:0.9354412" d="M 76.55571,63.816721 16.500385,124.33977 c 1.403162,0.18709 2.993412,-0.18709 4.864295,-1.21607 3.928852,-2.15152 45.64953,-24.976287 73.993398,-40.504611 z" class="st1" id="path23"/>
<linearGradient gradientTransform="matrix(1,0,0,-1,-124.695,-74.6006)" y2="-64.305603" x2="140.33949" y1="-129.66949" x1="203.46069" gradientUnits="userSpaceOnUse" id="path30_1_">
	<stop id="stop830" style="stop-color:#E6FFAB" offset="0"/>
	<stop id="stop832" style="stop-color:#47BEBC" offset="1"/>
</linearGradient>
<path style="fill:#00ee76;fill-opacity:1;stroke-width:0.9354412" d="M 76.55571,63.816721 95.358078,44.920809 c 0,0 -69.783914,-38.0724569 -73.993398,-40.3175158 C 19.77443,3.667852 17.997091,3.3872196 16.406841,3.667852 Z" class="st2" id="path30"/>
<linearGradient gradientTransform="matrix(1,0,0,-1,-124.695,-74.6006)" y2="-74.75" x2="159.237" y1="-203.717" x1="159.237" gradientUnits="userSpaceOnUse" id="path37_1_">
	<stop id="stop836" style="stop-color:#84E9DB" offset="0"/>
	<stop id="stop838" style="stop-color:#197491" offset="1"/>
</linearGradient>
<path style="fill:#00d3ff;fill-opacity:1;stroke-width:0.9354412" d="M 76.55571,63.816721 16.406841,3.667852 c -2.432147,0.5612647 -4.490118,2.7127795 -4.490118,7.109353 0,7.015809 0,100.559935 0,106.453215 0,4.02239 1.59025,6.92226 4.583662,7.20289 z" class="st3" id="path37"/>
<path style="fill:#808285;stroke-width:0.9354412" d="m 272.15646,51.843074 c -10.75757,0 -19.64426,8.325426 -19.64426,19.737809 0,11.318838 8.79314,19.737809 19.64426,19.737809 10.85112,0 19.64427,-8.325426 19.64427,-19.737809 0,-11.412383 -8.79315,-19.737809 -19.64427,-19.737809 z m 0,31.711456 c -5.89328,0 -11.0382,-4.957838 -11.0382,-11.973647 0,-7.109353 5.14492,-11.973647 11.0382,-11.973647 5.89328,0 11.03821,4.864294 11.03821,11.973647 0,7.015809 -5.14493,11.973647 -11.03821,11.973647 z M 229.31325,51.843074 c -10.85111,0 -19.64426,8.325426 -19.64426,19.737809 0,11.318838 8.79315,19.737809 19.64426,19.737809 10.85112,0 19.64427,-8.325426 19.64427,-19.737809 0,-11.412383 -8.79315,-19.737809 -19.64427,-19.737809 z m 0,31.711456 c -5.89328,0 -11.0382,-4.957838 -11.0382,-11.973647 0,-7.109353 5.14492,-11.973647 11.0382,-11.973647 5.89328,0 11.03821,4.864294 11.03821,11.973647 0,7.015809 -5.05138,11.973647 -11.03821,11.973647 z m -50.888,-25.631089 v 8.325427 h 19.83136 c -0.56127,4.677206 -2.15152,8.138339 -4.49012,10.476942 -2.89987,2.899867 -7.38999,6.080367 -15.34124,6.080367 -12.25428,0 -21.79578,-9.915676 -21.79578,-22.2635 0,-12.347824 9.5415,-22.263501 21.79578,-22.263501 6.64164,0 11.41239,2.619236 14.96706,5.986824 l 5.89328,-5.89328 c -4.95784,-4.77075 -11.59947,-8.41897 -20.86034,-8.41897 -16.74439,0 -30.86956,13.750985 -30.86956,30.588927 0,16.837941 14.03162,30.588927 30.86956,30.588927 9.07378,0 15.80896,-2.993412 21.23452,-8.606059 5.5191,-5.519103 7.2029,-13.283265 7.2029,-19.550721 0,-1.964427 -0.18709,-3.741765 -0.46772,-5.238471 z m 208.32276,6.454545 c -1.59025,-4.396574 -6.64163,-12.534912 -16.7444,-12.534912 -10.10276,0 -18.42819,7.95125 -18.42819,19.737809 0,11.038206 8.32543,19.737809 19.36363,19.737809 8.98024,0 14.12516,-5.519103 16.27668,-8.699603 l -6.64163,-4.490118 c -2.24506,3.274045 -5.23847,5.425559 -9.63505,5.425559 -4.39657,0 -7.48353,-1.964426 -9.44795,-5.986823 l 26.19235,-10.944662 z m -26.66008,6.641632 c -0.18708,-7.577073 5.89328,-11.505927 10.19631,-11.505927 3.46114,0 6.26746,1.683795 7.29644,4.209486 z m -21.23451,19.083001 h 8.60606 v -57.90381 h -8.60606 z M 324.72826,56.239647 h -0.28064 c -1.96442,-2.338603 -5.61264,-4.396573 -10.28985,-4.396573 -9.82213,0 -18.70882,8.699603 -18.70882,19.737809 0,11.038206 8.98023,19.644265 18.70882,19.644265 4.67721,0 8.32543,-2.057971 10.28985,-4.490118 h 0.28064 v 2.806324 c 0,7.577074 -4.0224,11.599476 -10.47694,11.599476 -5.23848,0 -8.51252,-3.835314 -9.82214,-7.015814 l -7.48353,3.1805 c 2.15152,5.238474 7.85771,11.693014 17.30567,11.693014 10.10276,0 18.61527,-5.98682 18.61527,-20.486161 V 53.059147 h -8.13833 z m -9.82214,27.314883 c -5.89328,0 -10.85111,-4.957838 -10.85111,-11.880103 0,-6.922265 4.95783,-11.973647 10.85111,-11.973647 5.79974,0 10.47695,5.051382 10.47695,11.973647 0,6.828721 -4.67721,11.880103 -10.47695,11.880103 z M 426.97198,32.198809 h -20.57971 v 57.90381 h 8.60606 V 68.119751 h 11.97365 c 9.5415,0 18.89591,-6.922265 18.89591,-17.960471 0,-11.038207 -9.35441,-17.960471 -18.89591,-17.960471 z m 0.28063,27.876147 H 414.99833 V 40.243603 h 12.25428 c 6.361,0 10.10277,5.332015 10.10277,9.915677 -0.0936,4.490117 -3.74177,9.915676 -10.10277,9.915676 z m 53.03952,-8.325426 c -6.17391,0 -12.62846,2.712779 -15.24769,8.886691 l 7.57707,3.1805 c 1.68379,-3.1805 4.67721,-4.209485 7.85771,-4.209485 4.49011,0 8.98023,2.712779 9.07378,7.483529 v 0.561265 c -1.59025,-0.935441 -4.8643,-2.245059 -8.98024,-2.245059 -8.23188,0 -16.55731,4.583662 -16.55731,13.002633 0,7.764162 6.73518,12.722 14.21871,12.722 5.79973,0 8.98023,-2.619235 10.94466,-5.706191 h 0.28063 v 4.490117 h 8.32543 V 67.745574 C 497.69138,57.549265 490.11426,51.74953 480.29213,51.74953 Z m -1.02899,31.711456 c -2.80632,0 -6.73517,-1.403162 -6.73517,-4.864294 0,-4.490118 4.86429,-6.173912 9.07378,-6.173912 3.74176,0 5.5191,0.841897 7.8577,1.964427 -0.65481,5.332014 -5.23847,9.073779 -10.19631,9.073779 z m 48.64294,-30.401839 -9.82213,25.069824 h -0.28063 L 507.60701,53.059147 h -9.26087 l 15.34124,35.079045 -8.6996,19.550728 h 8.98023 l 23.57312,-54.629773 z m -77.26744,37.043472 h 8.60606 v -57.90381 h -8.60606 z" class="st4" id="path46"/>
</svg>