<?xml version="1.0" standalone="no"?>
<!DOCTYPE svg PUBLIC "-//W3C//DTD SVG 20010904//EN"
 "http://www.w3.org/TR/2001/REC-SVG-20010904/DTD/svg10.dtd">
<svg version="1.0" xmlns="http://www.w3.org/2000/svg"
 width="512.000000pt" height="512.000000pt" viewBox="0 0 512.000000 512.000000"
 preserveAspectRatio="xMidYMid meet">

<g transform="translate(0.000000,512.000000) scale(0.100000,-0.100000)"
fill="#000000" stroke="none">
<path d="M738 5099 c-58 -30 -78 -79 -78 -187 l0 -89 -112 -5 c-86 -4 -129
-12 -180 -30 -162 -60 -278 -178 -340 -344 -20 -54 -22 -81 -26 -341 l-4 -283
2252 0 2252 0 -4 283 c-4 274 -5 284 -29 349 -34 88 -78 155 -142 215 -107
101 -209 142 -374 150 l-113 6 0 89 c0 110 -20 158 -80 188 -50 25 -90 25
-140 0 -60 -31 -80 -78 -80 -190 l0 -90 -330 0 -330 0 0 90 c0 112 -20 159
-80 190 -50 25 -90 25 -140 0 -60 -31 -80 -78 -80 -190 l0 -90 -330 0 -330 0
0 90 c0 71 -4 99 -20 130 -23 45 -80 80 -130 80 -50 0 -107 -35 -130 -80 -16
-31 -20 -59 -20 -130 l0 -90 -330 0 -330 0 0 90 c0 112 -20 159 -80 190 -49
25 -94 25 -142 -1z m222 -519 c0 -222 -2 -244 -20 -280 -23 -45 -80 -80 -131
-80 -46 0 -108 39 -130 82 -17 33 -19 61 -19 278 l0 240 150 0 150 0 0 -240z
m960 0 c0 -222 -2 -244 -20 -280 -23 -45 -80 -80 -131 -80 -46 0 -108 39 -130
82 -17 33 -19 61 -19 278 l0 240 150 0 150 0 0 -240z m960 0 c0 -222 -2 -244
-20 -280 -23 -45 -80 -80 -131 -80 -46 0 -108 39 -130 82 -17 33 -19 61 -19
278 l0 240 150 0 150 0 0 -240z m960 0 c0 -222 -2 -244 -20 -280 -23 -45 -80
-80 -131 -80 -46 0 -108 39 -130 82 -17 33 -19 61 -19 278 l0 240 150 0 150 0
0 -240z"/>
<path d="M0 2375 c0 -815 3 -1159 11 -1197 37 -172 175 -310 347 -347 38 -8
376 -11 1174 -11 958 0 1119 2 1115 14 -15 40 -29 233 -24 332 14 265 92 497
244 727 62 94 267 299 363 362 354 235 781 304 1175 190 47 -14 87 -25 90 -25
3 0 5 248 5 550 l0 550 -2250 0 -2250 0 0 -1145z m2011 592 c94 -63 88 -193
-12 -252 -30 -18 -52 -20 -194 -20 -142 0 -164 2 -194 20 -100 59 -106 189
-12 252 32 22 44 23 206 23 162 0 174 -1 206 -23z m890 0 c94 -63 88 -193 -12
-252 -30 -18 -52 -20 -194 -20 -142 0 -164 2 -194 20 -100 59 -106 189 -12
252 32 22 44 23 206 23 162 0 174 -1 206 -23z m890 0 c94 -63 88 -193 -12
-252 -30 -18 -52 -20 -194 -20 -142 0 -164 2 -194 20 -100 59 -106 189 -12
252 32 22 44 23 206 23 162 0 174 -1 206 -23z m-2681 -667 c45 -23 80 -80 80
-130 0 -50 -35 -107 -80 -130 -34 -18 -59 -20 -196 -20 -143 0 -160 2 -196 22
-101 57 -102 194 -2 254 37 22 49 24 197 24 138 0 163 -2 197 -20z m890 0 c45
-23 80 -80 80 -130 0 -50 -35 -107 -80 -130 -34 -18 -59 -20 -196 -20 -143 0
-160 2 -196 22 -101 57 -102 194 -2 254 37 22 49 24 197 24 138 0 163 -2 197
-20z m890 0 c45 -23 80 -80 80 -130 0 -50 -35 -107 -80 -130 -34 -18 -59 -20
-196 -20 -143 0 -160 2 -196 22 -101 57 -102 194 -2 254 37 22 49 24 197 24
138 0 163 -2 197 -20z m-1769 -683 c94 -63 88 -193 -12 -252 -30 -18 -52 -20
-194 -20 -142 0 -164 2 -194 20 -100 59 -106 189 -12 252 32 22 44 23 206 23
162 0 174 -1 206 -23z m890 0 c94 -63 88 -193 -12 -252 -30 -18 -52 -20 -194
-20 -142 0 -164 2 -194 20 -100 59 -106 189 -12 252 32 22 44 23 206 23 162 0
174 -1 206 -23z"/>
<path d="M3866 2190 c-237 -38 -443 -140 -611 -305 -166 -162 -272 -356 -316
-580 -20 -99 -18 -330 4 -427 93 -430 425 -762 855 -855 97 -22 328 -24 427
-4 224 44 418 150 580 316 420 431 420 1099 0 1530 -158 162 -341 264 -560
311 -85 19 -298 26 -379 14z m224 -460 c71 -36 80 -69 80 -290 l0 -190 190 0
c171 0 195 -2 230 -20 45 -23 80 -80 80 -130 0 -50 -35 -107 -80 -130 -37 -19
-58 -20 -320 -20 -262 0 -283 1 -320 20 -26 13 -47 34 -60 60 -19 37 -20 58
-20 320 0 262 1 283 20 320 37 73 124 99 200 60z"/>
</g>
</svg>
