<?xml version="1.0" standalone="no"?>
<!DOCTYPE svg PUBLIC "-//W3C//DTD SVG 20010904//EN"
 "http://www.w3.org/TR/2001/REC-SVG-20010904/DTD/svg10.dtd">
<svg version="1.0" xmlns="http://www.w3.org/2000/svg"
 width="512.000000pt" height="512.000000pt" viewBox="0 0 512.000000 512.000000"
 preserveAspectRatio="xMidYMid meet">

<g transform="translate(0.000000,512.000000) scale(0.100000,-0.100000)"
fill="#000000" stroke="none">
<path d="M2440 4549 c-697 -47 -1279 -560 -1432 -1263 -19 -87 -22 -131 -22
-316 0 -184 3 -229 22 -313 61 -276 179 -516 346 -707 36 -41 285 -356 553
-699 364 -465 499 -631 531 -652 82 -52 187 -46 259 16 22 18 252 305 512 637
260 331 504 639 542 683 182 209 305 461 361 738 32 160 32 453 -1 607 -89
417 -318 765 -659 998 -296 203 -643 296 -1012 271z m275 -290 c192 -23 381
-90 541 -190 386 -243 614 -657 614 -1115 0 -359 -138 -684 -398 -936 -227
-220 -485 -338 -800 -368 -374 -35 -746 98 -1022 366 -262 254 -400 578 -400
938 0 449 217 852 590 1098 257 170 571 244 875 207z"/>
<path d="M2439 3916 c-35 -17 -39 -78 -7 -100 30 -21 54 -20 78 4 49 49 -9
127 -71 96z"/>
<path d="M2600 3910 c-41 -41 -16 -103 40 -103 37 0 60 23 60 60 0 28 -33 63
-60 63 -11 0 -29 -9 -40 -20z"/>
<path d="M2223 3769 c-68 -14 -140 -75 -168 -142 -23 -57 -23 -939 1 -995 19
-46 57 -87 112 -119 25 -15 39 -29 35 -36 -4 -7 -56 -85 -115 -174 -59 -89
-112 -173 -118 -187 l-10 -26 70 0 70 0 90 135 c49 74 99 139 109 145 22 11
203 13 394 3 l128 -6 95 -139 95 -138 70 0 c44 0 69 4 69 11 0 6 -54 94 -120
194 -66 100 -120 187 -120 192 0 4 16 17 36 28 48 25 98 85 112 134 18 59 17
941 -1 984 -21 49 -63 93 -110 116 -39 18 -66 20 -369 23 -180 2 -340 0 -355
-3z m485 -105 c2 -43 -1 -64 -11 -73 -10 -8 -57 -11 -153 -9 l-139 3 -3 73 -3
73 153 -3 153 -3 3 -61z m189 -144 c44 -26 56 -73 51 -198 -3 -95 -5 -103 -31
-129 l-27 -28 -336 0 -336 0 -30 34 -30 33 4 123 c3 114 5 125 27 149 13 14
33 27 45 29 11 2 158 5 326 6 286 1 307 0 337 -19z m-587 -715 c88 -46 54
-185 -45 -185 -29 0 -45 8 -71 34 -40 40 -44 80 -13 120 36 46 80 56 129 31z
m598 -8 c23 -19 41 -69 35 -100 -7 -38 -57 -77 -98 -77 -41 0 -91 39 -98 77
-8 42 17 91 55 108 35 16 82 13 106 -8z"/>
</g>
</svg>
