<?xml version="1.0" standalone="no"?>
<!DOCTYPE svg PUBLIC "-//W3C//DTD SVG 20010904//EN"
 "http://www.w3.org/TR/2001/REC-SVG-20010904/DTD/svg10.dtd">
<svg version="1.0" xmlns="http://www.w3.org/2000/svg"
 width="512.000000pt" height="512.000000pt" viewBox="0 0 512.000000 512.000000"
 preserveAspectRatio="xMidYMid meet">

<g transform="translate(0.000000,512.000000) scale(0.100000,-0.100000)"
fill="#000000" stroke="none">
<path d="M79 4098 c-20 -11 -46 -38 -58 -58 l-21 -38 0 -1442 0 -1442 21 -38
c12 -21 38 -47 59 -59 l38 -21 1846 0 1846 0 0 1560 0 1560 -1847 0 -1848 0
-36 -22z m2725 -417 c17 -11 40 -35 51 -53 19 -31 20 -51 20 -398 0 -347 -1
-367 -20 -399 -11 -19 -33 -43 -48 -55 l-28 -21 -1091 -3 -1090 -2 -40 22
c-77 44 -78 49 -78 455 0 399 1 405 69 450 l34 23 1095 0 c1064 0 1096 -1
1126 -19z m-653 -1334 c92 -61 90 -181 -4 -251 -28 -21 -33 -21 -797 -21 -761
0 -769 0 -796 21 -94 70 -96 190 -5 251 l34 23 767 0 767 0 34 -23z m-5 -653
c94 -70 96 -190 5 -251 l-34 -23 -764 0 c-831 0 -796 -2 -842 56 -43 54 -37
147 13 193 54 51 46 51 848 48 737 -2 747 -2 774 -23z"/>
<path d="M780 3225 l0 -175 900 0 900 0 0 175 0 175 -900 0 -900 0 0 -175z"/>
<path d="M4100 2560 l0 -1560 451 0 c510 0 500 -1 544 75 25 42 25 43 25 304
0 222 -3 268 -16 297 -9 19 -51 63 -93 98 -236 197 -364 474 -364 786 0 200
49 377 148 535 70 112 124 174 216 251 42 35 84 79 93 98 13 29 16 75 16 297
0 261 0 262 -25 304 -44 76 -34 75 -544 75 l-451 0 0 -1560z"/>
</g>
</svg>
