<svg width="40" height="30" viewBox="0 0 493 359" fill="none" xmlns="http://www.w3.org/2000/svg">
<path d="M481.313 95.0063C451.575 95.0884 421.696 95.0571 392.243 95.3306H392.22L368.31 95.1548C362.255 95.1118 357.314 100.288 357.294 106.706L356.68 275.766L49.4504 274.867C43.3176 274.867 38.3684 280.172 38.4774 286.668L38.9149 312.172C38.9656 314.852 39.8875 317.43 41.5281 319.469C40.2429 322.598 39.5165 326.008 39.5165 329.563C39.5165 344.008 51.3174 356.02 65.8874 356.02C80.4614 356.02 92.2705 344.008 92.2705 329.563C92.2705 327.532 91.9853 325.559 91.5478 323.645L108.876 323.7L102.38 336.356C98.5359 343.852 103.966 352.766 112.376 352.774H170.044C178.489 352.77 183.919 343.801 180.02 336.301L173.532 323.856L213.774 323.957L207.407 336.359C203.563 343.856 208.993 352.769 217.403 352.777H275.083C283.521 352.777 288.946 343.801 285.048 336.305L278.704 324.12L318.673 324.222L312.439 336.363C308.595 343.859 314.024 352.773 322.435 352.781H380.115C388.552 352.781 393.978 343.804 390.079 336.308L383.865 324.374L396.424 324.429C395.689 326.851 395.178 329.355 395.178 331.987C395.178 346.432 407.139 358.444 421.768 358.444C436.342 358.444 448.151 346.432 448.151 331.987C448.151 329.413 447.662 326.964 446.971 324.593H476.811C492.081 324.866 492.081 301.788 476.811 302.062H444.366V203.71C444.37 197.308 439.471 192.116 433.428 192.116H411.682L411.178 117.456L481.576 116.581C496.779 116.604 496.377 95.2688 481.303 95.0378L481.313 95.0063Z" fill="black"/>
<path d="M208.983 0.0263772C207.835 0.0849712 206.573 0.295906 205.186 0.725596C200.546 2.4522 196.874 5.4639 193.721 8.2842C193.475 8.2256 192.831 8.1045 191.667 7.69435C189.252 6.84279 185.331 4.27245 178.147 5.62795L178.037 5.63967C168.217 7.58497 165.205 14.4874 162.744 18.1947C162.139 19.1087 161.58 19.9252 161.115 20.6009C160.545 20.4524 159.885 20.261 159.104 19.9563C155.756 18.6477 150.912 15.6008 142.881 17.429C135.623 19.0696 133.904 23.3509 132.291 26.0462C130.677 28.7454 129.56 31.2846 128.451 33.5932C127.345 35.9018 126.267 37.9408 125.529 39.0072C125.423 39.1635 125.349 39.226 125.267 39.3237C123.693 39.6791 120.611 39.9916 116.537 40.6362C114.15 41.0151 111.275 41.4877 107.873 43.5464C104.474 45.605 101.033 50.2144 100.271 54.7454L96.9779 73.6433C91.9115 76.6394 88.4037 82.12 88.4037 88.1594C88.4936 100.557 88.142 113.581 88.6654 125.753H43.5135C37.2674 125.757 32.2044 130.769 32.2044 136.952V145.745C12.6184 162.241 0.157452 177.456 0.00145205 195.706C-0.154798 214.046 12.3105 229.323 31.8885 245.503C31.9939 245.589 32.0994 245.667 32.2049 245.746V258.684C32.2049 264.867 37.2674 269.879 43.5169 269.883H337.567C343.821 269.886 348.887 264.871 348.887 258.684V105.704C348.887 99.516 343.817 94.5005 337.567 94.5045H166.747C160.501 94.5084 155.438 99.5201 155.438 105.704V125.751H125.137C125.762 113.485 125.379 100.638 125.379 88.1565C125.379 85.8518 124.918 83.6877 124.121 81.7151C129.238 79.344 134.484 76.8323 139.633 74.3987H139.657C138.227 75.0784 140.157 74.4495 143.68 74.8597C147.172 75.2659 151.868 76.5159 158.426 74.6409C163.086 73.3753 166.731 70.1565 168.774 67.4221C170.841 64.6604 171.876 62.2854 172.766 60.508C173.708 58.633 174.208 57.715 174.559 57.215C174.926 57.2658 175.36 57.3439 175.926 57.5197C178.501 58.3283 182.243 60.4377 188.93 59.5431C197.532 58.4259 201.954 52.129 204.146 48.9651C204.466 48.5042 204.478 48.5081 204.735 48.1331C208.216 48.3128 214.45 48.219 221.262 44.1722C225.809 41.2386 228.188 36.4925 230.11 32.3052C231.368 28.3404 231.676 24.5279 231.337 20.7782C231.016 16.2509 229.426 14.1102 228.012 12.0282C226.571 9.90709 224.946 8.12199 223.122 6.46179C221.298 4.80159 219.341 3.28209 216.79 2.00869C214.876 1.05166 212.423 -0.15541 208.981 0.0164895L208.983 0.0263772Z" fill="black"/>
<path d="M167.573 35.4062C167.515 35.4297 167.468 35.4609 167.409 35.4844C167.382 35.4961 167.351 35.4961 167.323 35.5078L167.573 35.4062Z" fill="black"/>
</svg>
